<svg width="265" height="41" viewBox="0 0 265 41" fill="none" xmlns="http://www.w3.org/2000/svg">
<path fill-rule="evenodd" clip-rule="evenodd" d="M27.7888 1.43726H24.219C23.7193 1.43726 23.313 1.84321 23.313 2.34496V26.1439L23.2965 26.2156C23.2965 31.1628 19.282 35.1886 14.347 35.1886C9.41202 35.1886 5.39749 31.1628 5.39749 26.2156L5.38099 26.1439V2.34496C5.38099 1.84321 4.97473 1.43726 4.47497 1.43726H0.905209C0.404768 1.43726 -0.00012207 1.84321 -0.00012207 2.34496V26.2156C-0.00012207 34.0438 6.27051 40.4267 14.039 40.5921C14.1415 40.5948 14.2439 40.6003 14.347 40.6003C14.4501 40.6003 14.5525 40.5948 14.6556 40.5921C22.4235 40.4267 28.6941 34.0438 28.6941 26.2156V2.34496C28.6941 1.84321 28.2892 1.43726 27.7888 1.43726Z" fill="black"/>
<path fill-rule="evenodd" clip-rule="evenodd" d="M81.5404 20.5946H63.3353C62.8307 20.5946 62.4225 20.9943 62.4225 21.4869V24.7019C62.4225 25.1951 62.8307 25.5949 63.3353 25.5949H72.7753C72.539 26.7778 72.1752 27.8782 71.6907 28.8755C71.0801 30.1303 70.2533 31.2191 69.2338 32.1148C68.2144 33.0106 66.9634 33.7172 65.5115 34.2152C64.0443 34.7193 62.3497 34.9754 60.475 34.9754C58.0286 34.9754 55.8586 34.5554 54.0276 33.7281C52.1896 32.8981 50.6399 31.7917 49.4167 30.4406C48.1872 29.0815 47.2446 27.5069 46.6133 25.7595C45.977 23.9992 45.6548 22.1448 45.6548 20.2463C45.6548 18.2842 45.9937 16.3722 46.6625 14.5624C47.3292 12.7608 48.2912 11.1585 49.5206 9.79931C50.7459 8.44558 52.2651 7.34187 54.0359 6.52136C55.7962 5.70425 57.8144 5.29027 60.0329 5.29027C61.428 5.29027 62.7566 5.46236 63.984 5.80113C65.2093 6.13923 66.3036 6.59928 67.2358 7.16774C68.1499 7.72536 68.9296 8.40425 69.5506 9.18546C70.1729 9.9687 70.6283 10.7994 70.9048 11.6544C71.0247 12.0257 71.3768 12.2784 71.7746 12.2784H75.4076C75.6827 12.2784 75.9433 12.1558 76.1166 11.9464C76.2912 11.7371 76.357 11.462 76.2995 11.1984C75.9648 9.67193 75.3209 8.22403 74.3874 6.89198C73.4573 5.56942 72.2653 4.40404 70.8466 3.4277C69.4362 2.45679 67.7895 1.69116 65.9515 1.15048C64.1226 0.61387 62.1141 0.34082 59.983 0.34082C56.9328 0.34082 54.1606 0.901825 51.7391 2.00757C49.3307 3.1079 47.2377 4.60053 45.5203 6.44209C43.8016 8.28365 42.4757 10.4315 41.5762 12.8252C40.6821 15.2088 40.2296 17.7225 40.2296 20.2972C40.2296 22.8203 40.6648 25.2818 41.5242 27.6126C42.3877 29.9576 43.6879 32.0722 45.3907 33.8988C47.0949 35.7275 49.2164 37.2127 51.6975 38.313C54.1828 39.416 57.0922 39.975 60.3454 39.975C62.9187 39.975 65.2772 39.6078 67.3557 38.8862C69.4459 38.1585 71.2887 37.1124 72.8349 35.7763C74.3805 34.4402 75.646 32.8202 76.5989 30.963C77.4341 29.3349 78.0183 27.532 78.3426 25.5949H81.5404C82.0449 25.5949 82.4531 25.1951 82.4531 24.7019V21.4869C82.4531 20.9943 82.0449 20.5946 81.5404 20.5946Z" fill="black"/>
<path fill-rule="evenodd" clip-rule="evenodd" d="M130.036 2.05005H126.52C126.152 2.05005 125.82 2.26188 125.675 2.58906C125.675 2.58906 113.165 29.5746 112.907 30.2182C112.798 30.4901 112.604 30.6493 112.393 30.6412C112.183 30.6493 111.988 30.4901 111.879 30.2182C111.621 29.5746 99.1117 2.58906 99.1117 2.58906C98.966 2.26188 98.6349 2.05005 98.2668 2.05005H94.7501C94.244 2.05005 93.8327 2.44807 93.8327 2.9385V39.0859C93.8327 39.577 94.244 39.975 94.7501 39.975H98.3714C98.8781 39.975 99.2894 39.577 99.2894 39.0859V17.5599C99.2894 17.1012 99.8485 17.11 99.967 17.4007C100.27 18.1468 110.074 39.4286 110.074 39.4286C110.215 39.7592 110.551 39.975 110.921 39.975H113.866C114.236 39.975 114.571 39.7592 114.712 39.4286C114.712 39.4286 124.516 18.1468 124.82 17.4007C124.938 17.11 125.497 17.1012 125.497 17.5599V39.0859C125.497 39.577 125.909 39.975 126.415 39.975H130.036C130.543 39.975 130.953 39.577 130.953 39.0859V2.9385C130.953 2.44807 130.543 2.05005 130.036 2.05005Z" fill="black"/>
<path fill-rule="evenodd" clip-rule="evenodd" d="M176.103 26.6259C175.451 28.4082 174.503 30.0079 173.287 31.3815C172.081 32.7475 170.573 33.8649 168.812 34.7027C167.059 35.535 165.068 35.9573 162.893 35.9573C160.684 35.9573 158.69 35.5357 156.966 34.7047C155.227 33.8669 153.738 32.7496 152.536 31.3835C151.328 30.0093 150.386 28.4088 149.734 26.6259C149.08 24.8369 148.747 22.9439 148.747 20.9998C148.747 19.0542 149.08 17.1517 149.734 15.3456C150.386 13.5463 151.328 11.9383 152.536 10.5654C153.738 9.19867 155.226 8.08615 156.963 7.25859C158.688 6.43445 160.684 6.01691 162.893 6.01691C165.085 6.01691 167.082 6.43513 168.826 7.25927C170.578 8.08888 172.08 9.20141 173.287 10.5675C174.503 11.9397 175.45 13.5469 176.102 15.3456C176.757 17.1524 177.09 19.0549 177.09 20.9998C177.09 22.9433 176.757 24.8362 176.103 26.6259ZM177.249 7.13695C175.568 5.30347 173.497 3.81168 171.092 2.70257C168.675 1.58936 165.917 1.0249 162.893 1.0249C159.872 1.0249 157.113 1.58936 154.692 2.70257C152.28 3.81168 150.203 5.30279 148.517 7.13558C146.831 8.96906 145.529 11.1189 144.648 13.5258C143.772 15.9217 143.327 18.4371 143.327 20.9998C143.327 23.5802 143.772 26.0991 144.648 28.4867C145.53 30.8847 146.831 33.0339 148.516 34.8749C150.201 36.7172 152.28 38.2138 154.692 39.3229C157.113 40.4354 159.872 40.9999 162.893 40.9999C165.917 40.9999 168.675 40.4354 171.092 39.3222C173.497 38.2138 175.57 36.7172 177.25 34.8742C178.927 33.0359 180.236 30.8847 181.144 28.482C182.05 26.084 182.51 23.5665 182.51 20.9998C182.51 18.4337 182.05 15.9169 181.144 13.5176C180.236 11.1135 178.925 8.96769 177.249 7.13695Z" fill="black"/>
<path fill-rule="evenodd" clip-rule="evenodd" d="M221.821 2.05005H218.259C217.76 2.05005 217.355 2.44807 217.355 2.9385V29.1868C217.355 29.3986 217.13 29.5227 216.954 29.2218C216.777 28.921 200.505 2.47842 200.505 2.47842C200.341 2.21263 200.049 2.05005 199.733 2.05005H195.786C195.288 2.05005 194.883 2.44807 194.883 2.9385V39.0859C194.883 39.577 195.288 39.975 195.786 39.975H199.347C199.846 39.975 200.25 39.577 200.25 39.0859V12.9254C200.25 12.5368 200.518 12.5645 200.621 12.7311C200.722 12.8977 217.101 39.546 217.101 39.546C217.265 39.8125 217.558 39.975 217.875 39.975H221.821C222.32 39.975 222.724 39.577 222.724 39.0859V2.9385C222.724 2.44807 222.32 2.05005 221.821 2.05005Z" fill="black"/>
<path fill-rule="evenodd" clip-rule="evenodd" d="M246.964 20.6588L264.26 2.98301C264.512 2.72471 264.586 2.33863 264.447 2.00379C264.308 1.66896 263.982 1.45166 263.622 1.45166H259.106C258.868 1.45166 258.639 1.54664 258.471 1.71679L243 17.3795V2.35161C243 1.85414 242.6 1.45166 242.106 1.45166H238.579C238.086 1.45166 237.685 1.85414 237.685 2.35161V38.9667C237.685 39.4641 238.086 39.8666 238.579 39.8666H242.106C242.6 39.8666 243 39.4641 243 38.9667V23.9388L258.471 39.6015C258.639 39.7716 258.868 39.8666 259.106 39.8666H263.622C263.982 39.8666 264.308 39.6486 264.447 39.3145C264.586 38.9803 264.512 38.5936 264.26 38.3346L246.964 20.6588Z" fill="black"/>
</svg>
