<svg width="170" height="40" viewBox="0 0 170 40" fill="none" xmlns="http://www.w3.org/2000/svg">
<path d="M45.4332 8.1472L44.7578 8.85479V10.9453C44.7598 11.0159 44.7472 11.0861 44.7207 11.1516C44.6942 11.2172 44.6544 11.2765 44.6038 11.326C44.5529 11.3784 44.4917 11.42 44.4242 11.4483C44.3566 11.4765 44.284 11.4907 44.2107 11.4901C44.1398 11.4896 44.0697 11.4749 44.0047 11.4467C43.9397 11.4184 43.8811 11.3774 43.8325 11.326C43.782 11.2764 43.7424 11.217 43.7161 11.1515C43.6899 11.086 43.6775 11.0158 43.6798 10.9453V4.35365C43.6841 4.212 43.7381 4.07633 43.8325 3.97026C43.9378 3.87617 44.0733 3.82231 44.2147 3.81825C44.3574 3.82229 44.4942 3.87609 44.6011 3.97026C44.6979 4.07865 44.7526 4.21801 44.7551 4.36307V7.30912L47.7837 4.08057C47.8248 4.02436 47.8771 3.97711 47.9373 3.94172C47.9974 3.90633 48.0642 3.88354 48.1335 3.87475C48.205 3.86238 48.2783 3.86572 48.3483 3.88455C48.4183 3.90337 48.4833 3.93722 48.5388 3.98372C48.5954 4.02471 48.643 4.07674 48.6788 4.13663C48.7145 4.19653 48.7377 4.26304 48.7468 4.33213C48.7589 4.40328 48.7553 4.47618 48.7364 4.54584C48.7176 4.61549 48.6838 4.68026 48.6374 4.7357L46.187 7.36427L48.6685 10.6076C48.718 10.6596 48.7558 10.7215 48.7791 10.7893C48.8024 10.8571 48.8107 10.9291 48.8035 11.0004C48.7844 11.1463 48.7082 11.2788 48.5915 11.369C48.4959 11.446 48.3767 11.4883 48.2538 11.4887C48.1739 11.4901 48.0948 11.4731 48.0226 11.439C47.9505 11.405 47.8872 11.3548 47.8377 11.2923L45.4332 8.1472Z" fill="#23283B"/>
<path d="M52.1456 8.52925L49.9261 11.2506C49.8762 11.3144 49.8125 11.3661 49.7398 11.402C49.6671 11.4378 49.5872 11.4569 49.506 11.4578C49.3861 11.4563 49.2703 11.414 49.1778 11.3381C49.1205 11.2974 49.0721 11.2455 49.0357 11.1856C48.9992 11.1257 48.9754 11.059 48.9657 10.9897C48.9532 10.9185 48.9565 10.8455 48.9754 10.7758C48.9943 10.7061 49.0283 10.6413 49.0751 10.5861L51.458 7.64678L49.1008 4.72898C49.0545 4.6735 49.0207 4.60872 49.0018 4.53908C48.983 4.46944 48.9794 4.39656 48.9913 4.32541C48.9966 4.25497 49.0176 4.18659 49.0526 4.12518C49.0876 4.06377 49.1359 4.01086 49.194 3.97027C49.2476 3.92476 49.3106 3.89143 49.3784 3.87261C49.4463 3.85379 49.5175 3.84994 49.5871 3.86131C49.7294 3.88195 49.8585 3.95608 49.9477 4.06847L52.1456 6.76834L54.2988 4.06443C54.388 3.95204 54.5171 3.87792 54.6595 3.85727C54.7292 3.84597 54.8006 3.84986 54.8687 3.86867C54.9368 3.88748 55 3.92077 55.0539 3.96623C55.1131 4.00696 55.1623 4.06036 55.1981 4.12251C55.2339 4.18465 55.2552 4.25398 55.2606 4.32541C55.2728 4.39655 55.2694 4.4695 55.2505 4.53919C55.2316 4.60887 55.1977 4.67363 55.1512 4.72898L52.8345 7.64678L52.1456 8.52925Z" fill="#23283B"/>
<path d="M58.7268 3.84649C59.0101 3.85022 59.2897 3.91075 59.5489 4.02446C59.8082 4.13818 60.0418 4.30274 60.2357 4.50834C60.6288 4.90214 60.852 5.43307 60.8581 5.98826C60.8642 6.54345 60.6525 7.07909 60.2682 7.48129C59.8737 7.89492 59.3408 8.15044 58.7701 8.19964C58.7638 8.20592 58.1406 8.20951 56.9005 8.21041V10.9009C56.9023 10.9723 56.8886 11.0433 56.8604 11.1089C56.8322 11.1746 56.7901 11.2335 56.7371 11.2816C56.6879 11.3333 56.6286 11.3746 56.5629 11.4028C56.4972 11.431 56.4263 11.4456 56.3548 11.4457C56.2119 11.4423 56.0757 11.3848 55.974 11.2848C55.8723 11.1847 55.8128 11.0498 55.8077 10.9076V4.3913C55.8069 4.31843 55.821 4.24616 55.8491 4.17887C55.8772 4.11158 55.9187 4.05067 55.9711 3.99984C56.0211 3.94946 56.081 3.90984 56.1469 3.88346C56.2129 3.85708 56.2837 3.8445 56.3548 3.84649H58.7268ZM58.639 7.12346C58.7876 7.12636 58.9352 7.0987 59.0726 7.04222C59.2099 6.98575 59.3341 6.90166 59.4374 6.79523C59.6451 6.58684 59.765 6.30721 59.7724 6.01365C59.7631 5.72207 59.6417 5.44517 59.4333 5.24014C59.328 5.13807 59.2029 5.05847 59.0656 5.00619C58.9284 4.95392 58.7818 4.93008 58.635 4.93612H56.9005V7.12346H58.639Z" fill="#23283B"/>
<path d="M68.0517 6.50333C67.9276 6.57026 67.7822 6.58619 67.6464 6.54772C67.5802 6.53294 67.518 6.50366 67.4645 6.46202C67.411 6.42037 67.3675 6.3674 67.3371 6.30693C66.7914 5.40024 66.0079 4.9469 64.9866 4.9469C64.2624 4.9518 63.569 5.23975 63.0559 5.74875C62.5427 6.25775 62.2509 6.94708 62.2431 7.6683C62.2374 8.02453 62.3066 8.378 62.4462 8.70603C62.5857 9.03407 62.7926 9.32942 63.0536 9.57314C63.3081 9.82378 63.6103 10.0213 63.9425 10.1541C64.2746 10.2869 64.6301 10.3524 64.988 10.3466C65.4358 10.3486 65.8769 10.2375 66.2699 10.0238C66.672 9.80465 67.0139 9.49053 67.2655 9.10904C67.2978 9.04346 67.3459 8.98688 67.4056 8.94438C67.4652 8.90189 67.5345 8.8748 67.6073 8.86555C67.675 8.84947 67.7458 8.85105 67.8128 8.87013C67.8797 8.88922 67.9406 8.92517 67.9896 8.97452C68.0549 9.00452 68.113 9.04834 68.1596 9.10293C68.2063 9.15752 68.2404 9.22158 68.2597 9.29065C68.2832 9.35878 68.2885 9.43183 68.275 9.5026C68.2615 9.57337 68.2297 9.63942 68.1827 9.69421C67.8398 10.2342 67.3666 10.68 66.8062 10.991C66.2492 11.3038 65.6193 11.4652 64.9799 11.4592C64.4761 11.4654 63.9763 11.3702 63.5104 11.1792C63.0445 10.9883 62.6222 10.7055 62.2688 10.348C61.901 10.0054 61.6091 9.59006 61.4118 9.12861C61.2146 8.66716 61.1163 8.16977 61.1232 7.6683C61.1153 7.16028 61.2132 6.65613 61.4108 6.18771C61.6084 5.71929 61.9015 5.29679 62.2715 4.9469C62.868 4.35755 63.642 3.97892 64.475 3.86888C65.308 3.75883 66.1543 3.92343 66.8846 4.33751C67.4623 4.65916 67.9356 5.13849 68.2489 5.71906C68.2939 5.78738 68.3241 5.86435 68.3373 5.94499C68.3506 6.02564 68.3467 6.10815 68.3259 6.1872C68.3063 6.25669 68.2715 6.32104 68.2241 6.37567C68.1768 6.4303 68.1179 6.47388 68.0517 6.50333Z" fill="#23283B"/>
<path d="M69.616 11.447C69.5442 11.4496 69.4727 11.4373 69.406 11.4109C69.3392 11.3845 69.2787 11.3446 69.2283 11.2937C69.1758 11.2428 69.1343 11.1819 69.1062 11.1146C69.0781 11.0474 69.064 10.9751 69.0648 10.9022V4.3913C69.0615 4.31969 69.0745 4.24826 69.1028 4.18234C69.1311 4.11642 69.174 4.05772 69.2283 4.0106C69.2767 3.95753 69.3361 3.91542 69.4022 3.88711C69.4684 3.8588 69.5399 3.84495 69.6119 3.84649C69.6835 3.84655 69.7543 3.86113 69.82 3.88935C69.8858 3.91756 69.945 3.95882 69.9942 4.0106C70.0485 4.05772 70.0914 4.11642 70.1197 4.18234C70.148 4.24826 70.161 4.31969 70.1577 4.3913V7.08176C71.3977 7.08176 72.0209 7.08535 72.0272 7.09252C72.5979 7.14172 73.1308 7.39725 73.5253 7.81087C73.9101 8.20364 74.1224 8.73253 74.1156 9.28121C74.1086 9.8462 73.8832 10.3867 73.4861 10.7904C73.0891 11.1941 72.5511 11.4297 71.984 11.4484L69.616 11.447ZM70.1563 8.1687V10.3574H71.8948C72.0417 10.3634 72.1882 10.3396 72.3255 10.2873C72.4627 10.235 72.5879 10.1554 72.6932 10.0534C72.9016 9.84834 73.023 9.57145 73.0322 9.27986C73.0245 8.9848 72.9031 8.70401 72.6932 8.49559C72.5898 8.3894 72.4656 8.30557 72.3282 8.24932C72.1909 8.19308 72.0433 8.16564 71.8948 8.1687H70.1563ZM74.4533 4.34826C74.4533 4.20555 74.5103 4.06868 74.6116 3.96777C74.7129 3.86686 74.8504 3.81017 74.9937 3.81017C75.1404 3.81379 75.2807 3.87073 75.3881 3.97025C75.4825 4.07578 75.5365 4.21104 75.5408 4.35229V10.9237C75.5427 10.9942 75.5301 11.0643 75.5039 11.1298C75.4776 11.1952 75.4382 11.2547 75.3881 11.3044C75.3389 11.3562 75.2797 11.3975 75.2139 11.4257C75.1482 11.4539 75.0774 11.4685 75.0058 11.4685C74.8641 11.4635 74.7296 11.4052 74.6293 11.3054C74.5291 11.2055 74.4705 11.0716 74.4655 10.9305L74.4533 4.34826Z" fill="#23283B"/>
<path d="M84.1997 3.82498C84.3414 3.82918 84.4769 3.88355 84.5819 3.97834C84.6798 4.08716 84.7346 4.22775 84.7359 4.37383C84.7317 4.51494 84.6771 4.64992 84.5819 4.75453C84.4768 4.84893 84.3412 4.90284 84.1997 4.90654H82.5381V10.9238C82.5401 10.9943 82.5275 11.0646 82.501 11.1301C82.4745 11.1956 82.4347 11.2549 82.3841 11.3044C82.3351 11.3565 82.2759 11.3979 82.2102 11.4261C82.1444 11.4544 82.0735 11.4688 82.0018 11.4686C81.8601 11.4636 81.7256 11.4053 81.6254 11.3054C81.5251 11.2056 81.4665 11.0716 81.4615 10.9305V4.90251H79.804C79.7332 4.90457 79.6628 4.89214 79.597 4.866C79.5313 4.83985 79.4716 4.80054 79.4217 4.7505C79.3703 4.70202 79.3293 4.64363 79.3012 4.57888C79.2731 4.51413 79.2585 4.44437 79.2583 4.37383C79.2575 4.30096 79.2716 4.22869 79.2997 4.1614C79.3278 4.09411 79.3693 4.0332 79.4217 3.98237C79.4716 3.93216 79.5312 3.89264 79.5969 3.86626C79.6627 3.83989 79.7332 3.82721 79.804 3.82902L84.1997 3.82498Z" fill="#23283B"/>
<path d="M88.1022 8.52925L85.8828 11.2506C85.8323 11.3151 85.7678 11.3672 85.6941 11.4031C85.6203 11.439 85.5394 11.4577 85.4573 11.4578C85.3373 11.4567 85.2214 11.4144 85.1291 11.3381C85.0724 11.2972 85.0247 11.2452 84.9889 11.1853C84.9531 11.1254 84.93 11.0588 84.921 10.9897C84.9091 10.9185 84.9128 10.8457 84.9316 10.776C84.9505 10.7064 84.9842 10.6416 85.0304 10.5861L87.4133 7.64678L85.0521 4.72898C85.0058 4.6735 84.972 4.60873 84.9531 4.53908C84.9343 4.46944 84.9307 4.39656 84.9426 4.32541C84.9602 4.18403 85.0333 4.05536 85.146 3.9676C85.2587 3.87984 85.4017 3.84017 85.5438 3.85727C85.6861 3.87792 85.8152 3.95205 85.9044 4.06444L88.1022 6.76431L90.2568 4.06444C90.3461 3.95205 90.4751 3.87792 90.6175 3.85727C90.7595 3.84017 90.9026 3.87984 91.0153 3.9676C91.1279 4.05536 91.2011 4.18403 91.2186 4.32541C91.2306 4.39656 91.227 4.46944 91.2081 4.53908C91.1893 4.60873 91.1555 4.6735 91.1092 4.72898L88.7912 7.64678L88.1022 8.52925Z" fill="#23283B"/>
<path d="M94.6836 3.8465C94.9668 3.85023 95.2464 3.91076 95.5057 4.02447C95.7649 4.13819 95.9985 4.30275 96.1925 4.50835C96.3929 4.70387 96.5514 4.93784 96.6584 5.19611C96.7655 5.45438 96.8188 5.73159 96.8152 6.01097C96.8189 6.28269 96.7686 6.55245 96.6673 6.80477C96.566 7.05709 96.4156 7.287 96.2249 7.4813C95.8307 7.89464 95.2984 8.15013 94.7281 8.19966C94.72 8.20593 94.0968 8.20952 92.8586 8.21042V10.9009C92.8601 10.9724 92.8462 11.0434 92.8177 11.1091C92.7893 11.1748 92.747 11.2336 92.6938 11.2816C92.6447 11.3335 92.5854 11.3748 92.5197 11.4031C92.4539 11.4313 92.3831 11.4458 92.3115 11.4457C92.17 11.4401 92.0358 11.3816 91.9357 11.2818C91.8355 11.1821 91.7768 11.0485 91.7711 10.9076V4.39131C91.7705 4.31835 91.7848 4.24601 91.8131 4.17872C91.8415 4.11142 91.8832 4.05057 91.9359 3.99985C91.9857 3.94951 92.0453 3.9099 92.111 3.88352C92.1768 3.85713 92.2473 3.84453 92.3182 3.8465H94.6836ZM94.5971 7.12347C94.7455 7.12618 94.8928 7.09844 95.0299 7.04196C95.167 6.98549 95.291 6.90151 95.3941 6.79524C95.6045 6.58714 95.726 6.30615 95.7332 6.01097C95.7246 5.71923 95.6031 5.44209 95.3941 5.23746C95.289 5.13556 95.164 5.05605 95.027 5.00378C94.89 4.95151 94.7437 4.92758 94.5971 4.93344H92.8586V7.12347H94.5971Z" fill="#23283B"/>
<path d="M101.513 10.3574C101.655 10.3616 101.791 10.416 101.896 10.5108C101.948 10.5616 101.99 10.6225 102.018 10.6898C102.046 10.7571 102.06 10.8293 102.059 10.9022C102.061 10.9736 102.047 11.0446 102.019 11.1103C101.991 11.176 101.949 11.2349 101.896 11.2829C101.847 11.3347 101.787 11.376 101.722 11.4042C101.656 11.4324 101.585 11.447 101.513 11.447H97.7013C97.5598 11.4414 97.4257 11.3829 97.3255 11.2832C97.2254 11.1835 97.1667 11.0499 97.161 10.9089V4.39131C97.1604 4.31835 97.1747 4.24601 97.203 4.17872C97.2313 4.11142 97.2731 4.05057 97.3258 3.99985C97.3755 3.94951 97.4351 3.9099 97.5009 3.88352C97.5667 3.85713 97.6372 3.84453 97.7081 3.8465H101.513C101.655 3.85069 101.791 3.90507 101.896 3.99985C101.948 4.05068 101.99 4.11159 102.018 4.17888C102.046 4.24617 102.06 4.31844 102.059 4.39131C102.062 4.46332 102.05 4.53514 102.022 4.6018C101.995 4.66846 101.953 4.72837 101.9 4.7774C101.85 4.8287 101.789 4.86925 101.723 4.89655C101.657 4.92385 101.585 4.93732 101.513 4.93613H98.2444V7.12347H100.737C100.878 7.12767 101.014 7.18204 101.119 7.27683C101.172 7.32754 101.213 7.3884 101.242 7.45569C101.27 7.52299 101.284 7.59532 101.284 7.66829C101.285 7.7398 101.271 7.8108 101.243 7.87649C101.214 7.94217 101.172 8.001 101.119 8.04899C101.07 8.1009 101.011 8.14224 100.945 8.17047C100.879 8.19869 100.808 8.2132 100.737 8.21311H98.2484V10.3574H101.513Z" fill="#23283B"/>
<path d="M108.284 11.4578H103.269C103.198 11.4592 103.126 11.4453 103.06 11.417C102.995 11.3887 102.935 11.3467 102.887 11.2937C102.835 11.2447 102.794 11.1857 102.766 11.1202C102.738 11.0547 102.723 10.9842 102.724 10.913V4.40208C102.721 4.33048 102.734 4.25908 102.762 4.19317C102.79 4.12727 102.833 4.06855 102.887 4.02138C102.935 3.96841 102.995 3.92636 103.06 3.89805C103.126 3.86973 103.198 3.85583 103.269 3.85726C103.341 3.85714 103.412 3.87164 103.478 3.89986C103.544 3.92808 103.604 3.96943 103.653 4.02138C103.706 4.06919 103.748 4.12819 103.775 4.19406C103.802 4.25993 103.814 4.331 103.81 4.40208V10.3682H107.187V4.40208C107.184 4.33048 107.197 4.25908 107.225 4.19317C107.253 4.12727 107.296 4.06855 107.35 4.02138C107.399 3.96831 107.458 3.9262 107.524 3.89789C107.591 3.86958 107.662 3.85572 107.734 3.85726C107.806 3.85732 107.876 3.87191 107.942 3.90012C108.008 3.92834 108.067 3.9696 108.116 4.02138C108.171 4.06855 108.213 4.12727 108.242 4.19317C108.27 4.25908 108.283 4.33048 108.28 4.40208V10.3682H108.838C108.983 10.3708 109.122 10.4252 109.231 10.5215C109.326 10.626 109.381 10.7611 109.385 10.9022V12.6873C109.387 12.7579 109.374 12.8282 109.348 12.8937C109.321 12.9592 109.281 13.0185 109.231 13.068C109.127 13.1723 108.985 13.2313 108.838 13.2322C108.764 13.2328 108.692 13.2185 108.624 13.1903C108.557 13.1621 108.496 13.1205 108.445 13.068C108.391 13.02 108.349 12.9612 108.321 12.8955C108.292 12.8299 108.278 12.7588 108.28 12.6873L108.284 11.4578Z" fill="#23283B"/>
<path d="M111.695 8.1472L111.019 8.85479V10.9453C111.021 11.0159 111.009 11.0861 110.982 11.1516C110.956 11.2172 110.916 11.2765 110.865 11.326C110.814 11.3784 110.753 11.42 110.686 11.4483C110.618 11.4765 110.545 11.4907 110.472 11.4901C110.401 11.4902 110.33 11.4757 110.264 11.4474C110.198 11.4192 110.139 11.3779 110.09 11.326C110.039 11.2765 109.999 11.2172 109.973 11.1516C109.946 11.0861 109.934 11.0159 109.936 10.9453V4.35365C109.94 4.21203 109.994 4.07639 110.089 3.97026C110.194 3.87617 110.329 3.82231 110.471 3.81825C110.616 3.82117 110.755 3.87502 110.864 3.97026C110.961 4.07865 111.015 4.21801 111.018 4.36307V7.30912L114.045 4.08057C114.087 4.02453 114.139 3.9774 114.199 3.94202C114.259 3.90665 114.326 3.88377 114.395 3.87475C114.466 3.86257 114.54 3.866 114.61 3.88481C114.68 3.90363 114.745 3.93738 114.8 3.98372C114.857 4.02488 114.904 4.07695 114.94 4.13681C114.976 4.19668 114.999 4.26311 115.008 4.33213C115.02 4.40328 115.017 4.47618 114.998 4.54584C114.979 4.61549 114.945 4.68026 114.899 4.7357L112.455 7.36427L114.937 10.6076C114.986 10.6596 115.024 10.7215 115.047 10.7893C115.071 10.8571 115.079 10.9291 115.072 11.0004C115.062 11.0731 115.037 11.143 115 11.2063C114.963 11.2695 114.913 11.3248 114.854 11.369C114.758 11.4463 114.639 11.4886 114.515 11.4887C114.436 11.49 114.357 11.4729 114.285 11.4389C114.213 11.4048 114.15 11.3547 114.101 11.2923L111.695 8.1472Z" fill="#23283B"/>
<path d="M119.119 11.447C118.618 11.4546 118.121 11.3577 117.659 11.1626C117.198 10.9676 116.783 10.6786 116.44 10.3144C116.084 9.9609 115.803 9.5398 115.613 9.07603C115.423 8.61226 115.329 8.11526 115.335 7.61449C115.331 7.12053 115.427 6.63084 115.617 6.17447C115.807 5.71809 116.087 5.30431 116.44 4.95766C116.791 4.60556 117.208 4.32608 117.668 4.13535C118.127 3.94463 118.62 3.84644 119.118 3.84644C119.616 3.84644 120.109 3.94463 120.569 4.13535C121.028 4.32608 121.446 4.60556 121.796 4.95766C122.15 5.30431 122.43 5.71809 122.619 6.17447C122.809 6.63084 122.905 7.12053 122.901 7.61449C122.908 8.11526 122.814 8.61226 122.624 9.07603C122.434 9.5398 122.153 9.9609 121.796 10.3144C121.454 10.6786 121.039 10.9675 120.578 11.1626C120.117 11.3576 119.62 11.4545 119.119 11.447ZM119.119 4.90251C118.397 4.90322 117.705 5.18917 117.194 5.69761C116.683 6.20606 116.396 6.89544 116.396 7.61449C116.387 7.97984 116.453 8.34316 116.59 8.68209C116.727 9.02102 116.933 9.32837 117.194 9.58525C117.445 9.83925 117.745 10.041 118.075 10.1786C118.406 10.3163 118.76 10.3872 119.118 10.3872C119.476 10.3872 119.831 10.3163 120.161 10.1786C120.492 10.041 120.791 9.83925 121.043 9.58525C121.302 9.32675 121.508 9.01936 121.647 8.68101C121.786 8.34266 121.856 7.98011 121.853 7.61449C121.856 7.25679 121.786 6.90218 121.647 6.5725C121.508 6.24282 121.302 5.94505 121.043 5.69754C120.793 5.4412 120.494 5.2384 120.163 5.10166C119.833 4.96493 119.477 4.89715 119.119 4.90251Z" fill="#23283B"/>
<path d="M124.595 4.9469V10.913C124.596 10.9859 124.582 11.0581 124.554 11.1254C124.526 11.1927 124.484 11.2536 124.432 11.3044C124.327 11.3992 124.191 11.4536 124.05 11.4578C123.979 11.4596 123.908 11.4469 123.842 11.4206C123.777 11.3942 123.717 11.3547 123.667 11.3044C123.615 11.2536 123.573 11.1927 123.545 11.1254C123.517 11.0581 123.503 10.9859 123.504 10.913V4.40208C123.501 4.33048 123.514 4.25908 123.542 4.19317C123.57 4.12727 123.613 4.06855 123.667 4.02138C123.716 3.96831 123.775 3.9262 123.841 3.89789C123.907 3.86958 123.979 3.85572 124.051 3.85726H127.855C127.926 3.85717 127.997 3.87168 128.063 3.8999C128.129 3.92813 128.188 3.96947 128.237 4.02138C128.29 4.06913 128.332 4.12808 128.359 4.19394C128.387 4.2598 128.399 4.33091 128.395 4.40208C128.396 4.47527 128.382 4.54786 128.353 4.6154C128.325 4.68294 128.283 4.74402 128.23 4.79489C128.127 4.88752 127.994 4.94128 127.855 4.9469H124.595Z" fill="#23283B"/>
<path d="M132.456 11.447C131.955 11.4546 131.458 11.3577 130.996 11.1626C130.535 10.9676 130.12 10.6786 129.777 10.3144C129.421 9.96084 129.14 9.5397 128.95 9.07592C128.761 8.61215 128.666 8.11518 128.673 7.61449C128.669 7.12062 128.765 6.63097 128.955 6.17459C129.144 5.71821 129.424 5.30438 129.777 4.95767C130.128 4.60552 130.545 4.32602 131.005 4.13527C131.465 3.94453 131.958 3.84633 132.456 3.84633C132.954 3.84633 133.447 3.94453 133.907 4.13527C134.366 4.32602 134.784 4.60552 135.134 4.95767C135.488 5.30432 135.768 5.7181 135.958 6.17447C136.147 6.63085 136.243 7.12054 136.239 7.61449C136.246 8.11526 136.152 8.61227 135.962 9.07604C135.772 9.53981 135.491 9.96091 135.134 10.3144C134.792 10.6786 134.377 10.9676 133.915 11.1626C133.454 11.3577 132.957 11.4546 132.456 11.447ZM132.456 4.90251C131.734 4.90358 131.042 5.18969 130.532 5.6981C130.021 6.2065 129.735 6.89568 129.734 7.61449C129.725 7.97985 129.791 8.34317 129.928 8.6821C130.066 9.02102 130.271 9.32838 130.532 9.58525C130.784 9.83926 131.083 10.041 131.413 10.1786C131.744 10.3163 132.098 10.3872 132.456 10.3872C132.815 10.3872 133.169 10.3163 133.499 10.1786C133.83 10.041 134.129 9.83926 134.381 9.58525C134.64 9.32675 134.846 9.01937 134.985 8.68102C135.124 8.34266 135.194 7.98011 135.191 7.61449C135.195 7.2568 135.124 6.90219 134.985 6.57251C134.846 6.24283 134.64 5.94506 134.381 5.69754C134.131 5.4411 133.832 5.23825 133.501 5.10151C133.17 4.96478 132.814 4.89705 132.456 4.90251Z" fill="#23283B"/>
<path d="M144.68 3.86937C144.753 3.86858 144.825 3.8826 144.893 3.91058C144.96 3.93856 145.022 3.97992 145.073 4.03214C145.125 4.08109 145.166 4.14013 145.194 4.20562C145.222 4.2711 145.236 4.34163 145.236 4.41284V10.9237C145.238 10.9952 145.224 11.0661 145.196 11.1318C145.168 11.1975 145.126 11.2564 145.073 11.3044C144.97 11.4027 144.832 11.4575 144.69 11.4575C144.547 11.4575 144.41 11.4027 144.307 11.3044C144.254 11.2564 144.212 11.1975 144.183 11.1318C144.155 11.0661 144.141 10.9952 144.143 10.9237V8.23329H143.027L141.213 11.1928C141.166 11.2749 141.097 11.343 141.015 11.3903C140.932 11.4375 140.838 11.4622 140.743 11.4618C140.643 11.4665 140.544 11.4397 140.459 11.3852C140.396 11.3475 140.34 11.2971 140.297 11.2372C140.253 11.1772 140.223 11.109 140.207 11.0367C140.188 10.9687 140.184 10.8974 140.196 10.8278C140.207 10.7582 140.234 10.6918 140.273 10.6332L141.804 8.14989C141.341 7.99449 140.934 7.70675 140.634 7.32257C140.341 6.95412 140.182 6.49716 140.185 6.02712C140.188 5.73908 140.249 5.45454 140.365 5.19072C140.481 4.92689 140.65 4.68926 140.861 4.49221C141.056 4.29449 141.289 4.13775 141.547 4.03124C141.804 3.92473 142.08 3.87061 142.359 3.87206L144.68 3.86937ZM144.139 7.14635V4.95766H142.401C142.254 4.95179 142.107 4.97585 141.97 5.02835C141.833 5.08086 141.707 5.16071 141.602 5.26303C141.394 5.46748 141.272 5.74398 141.263 6.03519C141.271 6.33025 141.392 6.61104 141.602 6.81946C141.706 6.92565 141.83 7.00948 141.967 7.06573C142.105 7.12197 142.252 7.14941 142.401 7.14635H144.139Z" fill="#23283B"/>
<path d="M147.037 9.41036C147.057 9.55585 147.108 9.69559 147.185 9.82099C147.261 9.94639 147.363 10.0548 147.484 10.1395C147.739 10.3289 148.052 10.424 148.37 10.4085C148.692 10.4184 149.005 10.3053 149.245 10.0924C149.356 9.99824 149.444 9.88119 149.504 9.74943C149.565 9.61767 149.595 9.47439 149.594 9.32964C149.593 9.18069 149.562 9.03345 149.502 8.89697C149.442 8.76049 149.355 8.63764 149.245 8.53596C149.131 8.42145 148.994 8.33146 148.844 8.27154C148.693 8.21162 148.532 8.18303 148.37 8.18754C148.207 8.19147 148.048 8.13707 147.922 8.03419C147.868 7.98613 147.826 7.92726 147.798 7.86157C147.77 7.79588 147.756 7.72491 147.758 7.65349C147.757 7.58062 147.771 7.50834 147.799 7.44105C147.828 7.37376 147.869 7.31285 147.922 7.26203C148.048 7.15915 148.207 7.10474 148.37 7.10867C148.531 7.11483 148.692 7.08805 148.843 7.02998C148.993 6.97191 149.13 6.88378 149.245 6.77102C149.356 6.66734 149.444 6.54222 149.504 6.4034C149.564 6.26458 149.594 6.11499 149.594 5.96388C149.595 5.81914 149.564 5.6759 149.504 5.54415C149.444 5.41241 149.356 5.29534 149.245 5.20114C149.005 4.98823 148.692 4.87511 148.37 4.88501C148.063 4.88758 147.763 4.97869 147.507 5.14733C147.278 5.27899 147.11 5.49348 147.037 5.74595C146.998 5.88874 146.914 6.01496 146.796 6.10513C146.736 6.15479 146.665 6.1888 146.589 6.20406C146.512 6.21933 146.433 6.21538 146.359 6.19257C145.988 6.12621 145.802 5.92263 145.801 5.58184C145.864 5.31895 145.978 5.07104 146.138 4.85241C146.297 4.63377 146.498 4.44871 146.73 4.30791C147.217 3.98713 147.791 3.82236 148.374 3.83573C149.005 3.82648 149.618 4.04322 150.102 4.44646C150.335 4.6267 150.523 4.85792 150.652 5.12223C150.781 5.38653 150.847 5.67682 150.845 5.97061C150.851 6.30187 150.774 6.62944 150.621 6.92388C150.469 7.21832 150.245 7.47042 149.971 7.65752C150.243 7.84422 150.465 8.09472 150.618 8.38699C150.77 8.67927 150.848 9.00436 150.845 9.33368C150.845 9.90854 150.597 10.4094 150.102 10.8363C149.627 11.2577 149.01 11.487 148.374 11.4793C147.758 11.4914 147.155 11.3024 146.657 10.9412C146.208 10.6132 145.903 10.1258 145.805 9.57985C145.805 9.23906 145.991 9.03235 146.363 8.9597C146.527 8.95868 146.687 9.008 146.822 9.10095C146.88 9.13191 146.929 9.1761 146.967 9.22989C147.004 9.28368 147.028 9.34553 147.037 9.41036Z" fill="#23283B"/>
<path d="M152.035 11.447C151.964 11.449 151.893 11.4364 151.828 11.41C151.762 11.3836 151.702 11.344 151.653 11.2937C151.6 11.2428 151.559 11.1819 151.531 11.1146C151.502 11.0474 151.488 10.9751 151.489 10.9022V4.3913C151.486 4.31969 151.499 4.24826 151.527 4.18234C151.555 4.11642 151.598 4.05772 151.653 4.0106C151.701 3.95757 151.76 3.91546 151.826 3.88715C151.892 3.85883 151.963 3.84496 152.035 3.84649C152.107 3.84636 152.178 3.86086 152.244 3.88908C152.31 3.9173 152.369 3.95866 152.419 4.0106C152.473 4.0579 152.515 4.11664 152.544 4.18251C152.572 4.24838 152.585 4.31972 152.582 4.3913V7.08176C153.821 7.08176 154.444 7.08535 154.452 7.09252C155.023 7.14097 155.557 7.39602 155.952 7.80953C156.337 8.20229 156.549 8.73119 156.543 9.27986C156.535 9.84475 156.31 10.3851 155.913 10.7887C155.516 11.1923 154.978 11.428 154.411 11.447H152.035ZM152.575 8.16871V10.3574H154.314C154.461 10.3634 154.607 10.3396 154.744 10.2873C154.882 10.235 155.007 10.1554 155.112 10.0534C155.321 9.84861 155.442 9.57144 155.45 9.27986C155.443 8.98484 155.322 8.70383 155.112 8.4956C155.009 8.3894 154.884 8.30557 154.747 8.24932C154.61 8.19308 154.462 8.16564 154.314 8.16871H152.575ZM156.872 4.34826C156.872 4.20555 156.929 4.06868 157.03 3.96777C157.132 3.86686 157.269 3.81017 157.413 3.81017C157.554 3.81437 157.69 3.86819 157.796 3.96218C157.891 4.06771 157.945 4.20297 157.949 4.34422V10.9237C157.951 10.9942 157.938 11.0643 157.912 11.1298C157.886 11.1952 157.846 11.2547 157.796 11.3044C157.747 11.3564 157.687 11.3977 157.621 11.426C157.555 11.4542 157.484 11.4687 157.413 11.4686C157.271 11.4635 157.136 11.4052 157.036 11.3054C156.936 11.2055 156.877 11.0716 156.872 10.9305V4.34826Z" fill="#23283B"/>
<path d="M160.444 8.1472L159.768 8.85479V10.9453C159.77 11.0157 159.758 11.0859 159.732 11.1513C159.705 11.2168 159.666 11.2762 159.616 11.326C159.565 11.3784 159.504 11.42 159.436 11.4483C159.369 11.4765 159.296 11.4907 159.223 11.4901C159.151 11.4902 159.08 11.4757 159.014 11.4475C158.948 11.4193 158.888 11.3779 158.839 11.326C158.789 11.2762 158.749 11.2168 158.723 11.1513C158.697 11.0859 158.684 11.0157 158.686 10.9453V4.35366C158.689 4.20886 158.743 4.06968 158.839 3.96085C158.945 3.86666 159.081 3.81281 159.223 3.80884C159.368 3.81499 159.506 3.87218 159.613 3.97027C159.709 4.07909 159.763 4.21828 159.766 4.36307V7.30912L162.794 4.08057C162.836 4.02453 162.888 3.9774 162.948 3.94203C163.008 3.90665 163.075 3.88377 163.144 3.87475C163.216 3.86238 163.289 3.86573 163.359 3.88455C163.429 3.90337 163.494 3.93722 163.549 3.98372C163.606 4.02448 163.654 4.07645 163.69 4.13639C163.726 4.19633 163.749 4.26296 163.757 4.33213C163.77 4.40328 163.766 4.47618 163.747 4.54584C163.728 4.6155 163.694 4.68026 163.648 4.7357L161.199 7.36024L163.682 10.6036C163.731 10.6559 163.768 10.7179 163.791 10.7856C163.815 10.8533 163.823 10.9251 163.817 10.9964C163.798 11.1418 163.723 11.2743 163.609 11.3663C163.513 11.4436 163.393 11.4859 163.27 11.4861C163.19 11.4873 163.111 11.4703 163.039 11.4362C162.967 11.4021 162.903 11.352 162.854 11.2897L160.444 8.1472Z" fill="#23283B"/>
<path d="M168.163 9.94441H165.495L165.035 11.0542C164.984 11.3152 164.81 11.447 164.511 11.447H164.39C164.315 11.419 164.247 11.3767 164.189 11.3224C164.131 11.2682 164.085 11.2031 164.052 11.1309C163.979 11.0515 163.96 10.917 163.997 10.7273L166.336 4.2393C166.364 4.12017 166.434 4.01496 166.533 3.94285C166.632 3.87074 166.754 3.83655 166.877 3.84649C166.995 3.8384 167.113 3.87386 167.208 3.9462C167.302 4.01853 167.367 4.12277 167.39 4.2393L169.609 10.7273C169.661 10.857 169.661 11.0012 169.609 11.1309C169.545 11.2744 169.427 11.3875 169.281 11.447C169.143 11.4714 169.002 11.4521 168.876 11.3919C168.735 11.3177 168.623 11.1988 168.558 11.0542L168.163 9.94441ZM167.84 8.84402L166.878 6.0567L165.893 8.84402H167.84Z" fill="#23283B"/>
<path d="M53.5882 15.4841C54.3987 13.6626 57.1504 13.7353 57.9204 15.554C60.333 20.6511 62.1607 26.0118 64.4639 31.1587C65.9025 31.4452 68.407 31.5299 68.2287 33.6137C68.4988 35.1325 66.9994 36.4387 65.527 36.2086C59.0429 36.2477 52.5508 36.3176 46.0627 36.2167C44.1715 36.4266 42.8423 34.4424 43.4421 32.738C44.1337 31.3214 45.8452 31.5151 47.1285 31.1654C49.4101 25.9957 51.177 20.5973 53.5882 15.4841ZM52.4778 31.4035C54.6797 31.3954 56.8811 31.3954 59.0821 31.4035C58.0167 28.592 56.9433 25.7827 55.8617 22.9756C54.5608 25.7091 53.5261 28.561 52.4778 31.4035Z" fill="#E6514A"/>
<path d="M69.7686 16.1688C69.8145 14.9312 70.8628 13.9788 72.0245 14.0272C72.5581 14.0597 73.0617 14.2839 73.4418 14.6583C73.8219 15.0326 74.0527 15.5316 74.0913 16.0625C74.0805 20.1422 74.0688 24.2227 74.0562 28.3041C76.1815 25.8343 78.314 23.3138 80.4538 20.7426C81.9577 18.931 83.4391 17.1284 84.8981 15.3348C85.1347 15.0105 85.4412 14.743 85.795 14.5518C86.5123 14.1658 87.5444 14.042 88.1928 14.4873C88.9708 15.0254 89.0222 16.1836 89.0384 16.7069C89.1127 19.1001 89.1275 25.6944 89.0141 34.5635C88.6304 35.7526 87.4809 36.5006 86.3124 36.3714C85.8063 36.3061 85.3313 36.092 84.948 35.7566C84.5647 35.4211 84.2905 34.9795 84.1605 34.4881C84.1119 30.9394 84.0637 27.3903 84.0159 23.8406L78.0088 30.2385C76.3756 32.099 74.945 33.6487 73.7941 34.8877C73.5321 35.1702 72.8026 35.9221 71.8124 36.0984C71.5828 36.1401 70.8398 36.2719 70.2941 35.8576C70.2382 35.8185 70.1849 35.7758 70.1347 35.7298C69.7038 35.3262 69.6741 34.741 69.6606 34.5029C69.6214 33.7913 69.6511 26.3549 69.7686 16.1688Z" fill="#E6514A"/>
<path d="M96.7395 16.6531C97.4393 14.8491 99.2602 13.1757 101.332 13.8725C103.629 14.8868 104.169 17.5598 105.058 19.657C106.653 24.3438 108.84 28.8449 110.091 33.6473C110.596 35.5387 108.335 36.8476 106.714 36.1575C105.22 35.2051 105.034 33.307 104.403 31.8044C101.688 31.7963 98.9806 31.8044 96.2735 31.7815C95.7683 33.0285 95.3873 34.3536 94.6525 35.4917C93.6177 36.7696 91.2997 36.6149 90.5527 35.1123C90.3109 32.9424 91.3456 30.9286 92.0535 28.9458C93.6785 24.8657 95.0294 20.6901 96.7395 16.6531ZM97.5717 27.2427C99.3845 27.2427 101.2 27.24 103.017 27.2346C102.071 24.524 101.236 21.7811 100.396 19.0382C99.3764 21.7434 98.4983 24.4931 97.5717 27.2427Z" fill="#E6514A"/>
<path d="M117.625 17.6364C117.98 16.5871 118.857 13.9962 120.439 13.7931C120.718 13.762 121.001 13.7952 121.265 13.89C123.057 14.4684 123.783 16.9477 123.913 17.4131L130.369 33.6352C130.471 34.1857 130.378 34.7546 130.103 35.2434C129.829 35.7322 129.392 36.11 128.867 36.3114C128.342 36.5128 127.764 36.5251 127.231 36.3461C126.698 36.1672 126.245 35.8082 125.95 35.3316L120.925 22.9555L116.602 34.4989C116.258 35.6194 115.387 36.4252 114.367 36.5449C114.173 36.5678 112.977 36.6795 112.326 35.7714C111.735 34.9428 112.084 33.9581 112.119 33.8612C114.553 26.5526 116.508 20.9053 117.625 17.6364Z" fill="#E6514A"/>
<path d="M138.11 14.6164C142.085 13.1824 147.048 13.6398 150.168 16.684C153.863 20.3336 154.127 26.3696 152.238 30.9434C148.995 38.435 136.703 38.6206 133.038 31.4169C130.176 25.7401 131.567 17.0647 138.11 14.6164ZM139.713 19.1713C136.523 21.4878 136.235 26.301 137.985 29.5834C139.634 32.7676 144.723 33.0231 146.714 30.0717C148.558 27.3288 148.558 23.4936 146.869 20.674C145.468 18.2956 141.968 17.7145 139.713 19.1713Z" fill="#E6514A"/>
<path d="M156.787 14.6931L168.121 14.5586C169.257 14.8922 170.019 15.9038 170 16.9423C169.977 18.227 168.784 19.3826 167.276 19.3314L159.79 19.3449L159.697 34.4114C159.63 35.0016 159.348 35.5466 158.903 35.943C158.459 36.3394 157.885 36.5594 157.288 36.5612C156.692 36.563 156.116 36.3465 155.669 35.9529C155.222 35.5593 154.937 35.016 154.866 34.4262C154.825 29.2588 154.783 24.0917 154.742 18.9252C154.707 18.7355 154.321 16.3975 155.802 15.207C156.093 14.9718 156.428 14.797 156.787 14.6931Z" fill="#E6514A"/>
<path d="M25.9771 14.9796C29.8535 14.9796 32.996 11.8502 32.996 7.98981C32.996 4.12944 29.8535 1 25.9771 1C22.1006 1 18.9581 4.12944 18.9581 7.98981C18.9581 11.8502 22.1006 14.9796 25.9771 14.9796Z" stroke="#23283B" stroke-width="0.83" stroke-miterlimit="10"/>
<path d="M29.4433 10.118C28.5092 10.9212 27.3221 11.3731 26.0882 11.3952C24.8543 11.4173 23.6516 11.0082 22.6891 10.2391" stroke="#23283B" stroke-width="0.83" stroke-miterlimit="10" stroke-linecap="round"/>
<path d="M23.671 6.40914C23.671 6.56269 23.5454 6.69072 23.3861 6.69072C23.2268 6.69072 23.1013 6.56269 23.1013 6.40914C23.1013 6.25559 23.2268 6.12756 23.3861 6.12756C23.5454 6.12756 23.671 6.25559 23.671 6.40914Z" fill="#23283B" stroke="#23283B"/>
<path d="M29.1851 6.40914C29.1851 6.56269 29.0596 6.69072 28.9003 6.69072C28.741 6.69072 28.6154 6.56269 28.6154 6.40914C28.6154 6.25559 28.741 6.12756 28.9003 6.12756C29.0596 6.12756 29.1851 6.25559 29.1851 6.40914Z" fill="#23283B" stroke="#23283B"/>
<path d="M10.6923 18.3131C14.5688 18.3131 17.7113 15.1836 17.7113 11.3233C17.7113 7.46291 14.5688 4.33347 10.6923 4.33347C6.81582 4.33347 3.67332 7.46291 3.67332 11.3233C3.67332 15.1836 6.81582 18.3131 10.6923 18.3131Z" stroke="#23283B" stroke-width="0.83" stroke-miterlimit="10"/>
<path d="M14.1599 13.4528C13.2253 14.2551 12.0382 14.7063 10.8045 14.7281C9.57084 14.75 8.36837 14.3411 7.4057 13.5725" stroke="#23283B" stroke-width="0.83" stroke-miterlimit="10" stroke-linecap="round"/>
<path d="M8.38621 9.74264C8.38621 9.89619 8.26064 10.0242 8.10137 10.0242C7.94209 10.0242 7.81653 9.89619 7.81653 9.74264C7.81653 9.58909 7.94209 9.46106 8.10137 9.46106C8.26064 9.46106 8.38621 9.58909 8.38621 9.74264Z" fill="#23283B" stroke="#23283B"/>
<path d="M13.9003 9.74264C13.9003 9.89619 13.7748 10.0242 13.6155 10.0242C13.4562 10.0242 13.3307 9.89619 13.3307 9.74264C13.3307 9.58909 13.4562 9.46106 13.6155 9.46106C13.7748 9.46106 13.9003 9.58909 13.9003 9.74264Z" fill="#23283B" stroke="#23283B"/>
<path d="M35.6707 27.2306C35.6707 21.691 30.9211 16.9732 30.1079 15.9065C29.0273 17.2423 26.9321 17.5208 25.9771 17.5719C25.022 17.5167 22.9269 17.2423 21.8475 15.9065C21.037 16.9732 16.2848 21.691 16.2848 27.2306C16.2848 31.2569 18.6663 35.6369 25.4799 36.0244V36.0553C25.6502 36.0553 25.8136 36.0553 25.9771 36.0459C26.1405 36.0365 26.3053 36.0553 26.4742 36.0553V36.0244C33.2959 35.6369 35.6707 31.2569 35.6707 27.2306Z" fill="white"/>
<path d="M35.6707 27.279C35.6707 25.4549 35.3532 24.3088 34.6332 22.7631C33.1662 19.6166 18.5582 19.9179 17.0912 22.8384C16.2591 24.4931 16.2807 25.2746 16.2807 27.2777C16.2807 31.304 18.6622 35.6827 25.4759 36.0714V36.1024C25.6461 36.1024 25.8095 36.1024 25.973 36.093C26.1364 36.0836 26.3012 36.1024 26.4701 36.1024V36.0714C33.2959 35.684 35.6707 31.3053 35.6707 27.279Z" fill="#3035C4"/>
<path d="M16.3361 28.3081C17.3398 31.573 19.2445 35.7176 25.4799 36.0728V36.1037C25.6502 36.1037 25.8136 36.1037 25.9771 36.0943C26.1405 36.0849 26.3053 36.1037 26.4742 36.1037V36.0728C32.7069 35.7176 35.5667 31.0174 35.618 28.9027C33.5296 26.3199 21.0195 26.3199 16.3361 28.3081Z" fill="#E6514A"/>
<path opacity="0.33" d="M26.0608 33.6863C21.9137 33.272 18.85 29.9762 19.2188 26.3266C18.4434 26.1921 18.1179 26.7988 17.7126 26.9306C17.3438 30.5802 20.4143 33.876 24.5546 34.2904C26.1605 34.4606 27.781 34.154 29.2123 33.4092C28.1891 33.7004 27.1194 33.7944 26.0608 33.6863Z" fill="white"/>
<path d="M35.6707 27.2306C35.6707 21.691 30.9211 16.9732 30.1079 15.9065C29.0273 17.2423 26.9321 17.5208 25.9771 17.5719C25.022 17.5167 22.9269 17.2423 21.8475 15.9065C21.037 16.9732 16.2848 21.691 16.2848 27.2306C16.2848 31.2569 18.6663 35.6369 25.4799 36.0244V36.0553C25.6502 36.0553 25.8136 36.0553 25.9771 36.0459C26.1405 36.0365 26.3053 36.0553 26.4742 36.0553V36.0244C33.2959 35.6369 35.6707 31.2569 35.6707 27.2306Z" stroke="#23283B" stroke-width="0.83" stroke-linejoin="round"/>
<path d="M20.3859 30.1766C20.3859 24.637 15.6364 19.9193 14.8232 18.8525C13.7425 20.1883 11.6473 20.4668 10.6923 20.5166C9.73724 20.4627 7.64209 20.1883 6.56276 18.8525C5.75226 19.9193 1 24.637 1 30.1766C1 34.2016 3.38153 38.5816 10.1965 38.969V39C10.3654 39 10.5288 39 10.6923 38.9906C10.8557 38.9812 11.0205 39 11.1894 39V38.969C18.0044 38.5816 20.3859 34.2016 20.3859 30.1766Z" fill="#E6514A" stroke="#23283B" stroke-width="0.83" stroke-linejoin="round"/>
<path fill-rule="evenodd" clip-rule="evenodd" d="M10.9989 28.3135L11.6217 29.1395L12.6024 28.8059L12.0053 29.6507L12.628 30.4766L11.6365 30.1726L11.0395 31.0174L11.0246 29.9843L10.0331 29.6803L11.0151 29.3467L10.9989 28.3135Z" fill="white"/>
<path d="M10.1141 33.4778C9.11743 33.4778 8.16156 33.0835 7.45679 32.3817C6.75202 31.6799 6.35608 30.728 6.35608 29.7354C6.35608 28.7429 6.75202 27.791 7.45679 27.0891C8.16156 26.3873 9.11743 25.993 10.1141 25.993C10.5227 25.9932 10.9284 26.0605 11.315 26.1921C10.6107 25.7438 9.79266 25.5047 8.95677 25.5027C8.12087 25.5008 7.30173 25.7361 6.59529 26.181C5.88884 26.626 5.32435 27.2622 4.96795 28.0152C4.61154 28.7682 4.47797 29.6067 4.58288 30.4325C4.68779 31.2584 5.02685 32.0373 5.56032 32.6782C6.0938 33.319 6.79961 33.7952 7.59507 34.051C8.39054 34.3067 9.24271 34.3315 10.0518 34.1223C10.8609 33.9131 11.5933 33.4786 12.1634 32.8698C11.554 33.2663 10.842 33.4776 10.1141 33.4778Z" fill="white"/>
</svg>
